<?xml version="1.0" encoding="utf-8"?>
<!-- Generator: Adobe Illustrator 23.1.1, SVG Export Plug-In . SVG Version: 6.00 Build 0)  -->
<svg version="1.1" xmlns="http://www.w3.org/2000/svg" xmlns:xlink="http://www.w3.org/1999/xlink" x="0px" y="0px"
	 viewBox="0 0 1275.59 382.68" style="enable-background:new 0 0 1275.59 382.68;" xml:space="preserve">
<style type="text/css">
	.st0{fill:none;}
	.st1{fill:#0000A4;}
	.st2{display:none;}
	.st3{display:inline;fill:none;stroke:#FF00FF;stroke-width:0.5669;stroke-miterlimit:10;}
	.st4{display:inline;fill:none;stroke:#00FFFF;stroke-width:0.5669;stroke-miterlimit:10;}
</style>
<g id="POS_logo">
	<rect class="st0" width="1275.59" height="382.68"/>
	<g>
		<g>
			<path class="st1" d="M255.12,140.3h40.85v33.82c8.02-3.04,16.3-4.46,24.92-4.46c32.08,0,55.34,23.49,55.34,55.7
				c0,24.3-16.64,53.06-54.54,53.06h-66.57V140.3z M295.96,242.99c5.41,1.01,11.43,1.42,15.44,1.42c14.64,0,24.26-7.9,24.26-20.25
				c0-12.15-9.42-20.46-23.06-20.46c-5.01,0-11.03,0.61-16.65,2.43V242.99z"/>
			<path class="st1" d="M444.91,169.67c45.11,0,62.36,29.37,62.36,55.29c0,28.35-19.85,55.29-61.96,55.29
				c-45.11,0-62.76-29.16-62.76-55.29C382.55,197.42,401.19,169.67,444.91,169.67z M444.91,245.62c12.75,0,21.53-8.51,21.53-20.66
				c0-12.15-8.78-20.66-21.53-20.66c-12.75,0-21.53,8.51-21.53,20.66C423.38,237.12,432.16,245.62,444.91,245.62z"/>
			<path class="st1" d="M515.55,140.3h40.79v138.13h-40.79V140.3z"/>
			<path class="st1" d="M609.75,255.34c0,13.77-10.66,24.91-24.09,24.91c-13.43,0-24.29-11.14-24.29-24.91
				c0-13.77,10.86-24.71,24.29-24.71C599.09,230.63,609.75,241.57,609.75,255.34z"/>
			<path class="st1" d="M702.01,273.57c-13.56,5.06-21.81,6.68-33.01,6.68c-34.77,0-58.94-22.48-58.94-54.68
				c0-26.73,17.48-55.9,57.76-55.9c11,0,22.79,1.82,33.4,5.47v35.44c-9.04-4.25-17.29-6.28-25.93-6.28
				c-14.54,0-24.36,8.51-24.36,20.86c0,12.15,10.41,20.46,25.54,20.46c7.66,0,14.34-1.82,25.54-6.68V273.57z"/>
			<path class="st1" d="M769.79,169.67c45.11,0,62.36,29.37,62.36,55.29c0,28.35-19.85,55.29-61.96,55.29
				c-45.11,0-62.76-29.16-62.76-55.29C707.44,197.42,726.08,169.67,769.79,169.67z M769.79,245.62c12.75,0,21.53-8.51,21.53-20.66
				c0-12.15-8.78-20.66-21.53-20.66c-12.75,0-21.53,8.51-21.53,20.66C748.27,237.12,757.04,245.62,769.79,245.62z"/>
			<path class="st1" d="M841,171.49h40.77v14.18c9.87-10.94,21.5-16,34.4-16c14.71,0,24.18,5.67,32.04,19.04
				c10.68-12.35,23.78-19.04,37.89-19.04c23.98,0,34.37,19.04,34.37,40.3v68.46H979.7v-61.37c0-7.7-4.52-12.76-11.37-12.76
				c-6.05,0-12.84,3.85-17.07,10.94v63.19h-41.06v-60.56c0-7.9-4.72-13.57-11.98-13.57c-5.24,0-12.03,3.85-16.46,10.94v63.19H841
				V171.49z"/>
		</g>
		<g>
			<path class="st1" d="M1068.75,75.34c31.93,0,57.9,26.29,57.9,58.61c0,32.3-25.97,58.58-57.9,58.58
				c-31.93,0-57.92-26.28-57.92-58.58C1010.83,101.64,1036.81,75.34,1068.75,75.34 M1068.75,71.38c-34.12,0-61.88,28.07-61.88,62.57
				c0,34.49,27.76,62.55,61.88,62.55c34.11,0,61.86-28.06,61.86-62.55C1130.61,99.45,1102.86,71.38,1068.75,71.38L1068.75,71.38z"/>
			<g>
				<g>
					<path class="st1" d="M1040.06,139.6c-8.01,0-16.66-5.52-16.66-14.44c0-16.97,21.56-32.57,28.98-36.04
						c1.16-0.54,2.98,1.67,3.67,3.05c0.57,1.13,0.34,1.56,0.05,1.71l0,0c-13.53,7.24-28.08,20.84-28.08,33.57
						c0,5.52,2.9,7.67,10.34,7.67c8.75,0,28.63-12.06,28.63-20.75c0-3.25-2.41-4.9-7.17-4.9c-11.79,0-18.15,7.68-20,14.27
						c-0.14,0.49-0.68,0.7-1.41,0.56c-0.94-0.19-1.89-0.92-1.78-1.76c0.76-5.84,6.95-18.64,20.43-18.64
						c6.04,0,13.43,5.42,13.43,11.76C1070.49,127.99,1053.35,139.6,1040.06,139.6z M1055.85,93.41l0.13,0.24L1055.85,93.41
						L1055.85,93.41L1055.85,93.41z"/>
				</g>
				<g>
					<path class="st1" d="M1059.4,180.77c-6.66,0-17.93-3.01-17.93-14.28c0-8.71,7.29-18.94,21.09-29.58l0.34-0.27
						c0.92-0.72,3.22,0.73,4.26,2.02c0.94,1.16,0.5,1.74,0.27,1.93l0,0c-6.57,5.5-21.95,18.37-21.95,28.8
						c0,4.04,3.24,6.56,8.45,6.56c6.84,0,15.35-1.97,23.98-5.56c1.11-0.45,2.41,1.02,2.98,2.22c0.52,1.08,0.48,1.92-0.1,2.24
						C1073.14,179.06,1066.94,180.77,1059.4,180.77z"/>
				</g>
				<g>
					<path class="st1" d="M1088.49,140.22c-14.56,0-14.72-10.73-14.72-11.19c0-2.4,1.45-4.14,2.31-4.97
						c0.61-0.59,1.88-0.28,2.39-0.12c1.01,0.32,2.1,0.96,2.25,1.67c0.06,0.29-0.05,0.58-0.3,0.79c-2.05,1.74-3.03,3-3.03,5.42
						c0,2.08,2.17,4.29,6.19,4.29c15.83,0,25.92-13.6,25.92-20.72c0-6.49-4.77-7.85-8.76-7.85c-13.88,0-24.06,13.27-24.49,13.84l0,0
						c-0.21,0.28-0.51,0.4-0.87,0.35c-1.09-0.14-2.59-1.81-3.16-3.16c-0.31-0.74-0.32-1.34-0.03-1.72c1.11-1.46,4.37-5.08,8.72-8.3
						c5.64-4.17,11.1-6.28,16.25-6.28c11.06,0,16.1,8.08,16.1,15.59C1113.25,129.78,1101.68,140.22,1088.49,140.22z"/>
				</g>
			</g>
		</g>
	</g>
</g>
<g id="grid" class="st2">
	<line class="st3" x1="0" y1="127.56" x2="1274.17" y2="127.56"/>
	<line class="st4" x1="0" y1="133.94" x2="1274.17" y2="133.94"/>
	<line class="st4" x1="0" y1="140.31" x2="1274.17" y2="140.31"/>
	<line class="st3" x1="0" y1="255.12" x2="1274.17" y2="255.12"/>
	<line class="st3" x1="255.12" y1="382.68" x2="255.12" y2="0"/>
	<line class="st3" x1="127.56" y1="382.68" x2="127.56" y2="0"/>
	<line class="st3" x1="382.68" y1="382.68" x2="382.68" y2="0"/>
	<line class="st3" x1="510.24" y1="382.68" x2="510.24" y2="0"/>
	<line class="st3" x1="637.8" y1="382.68" x2="637.8" y2="0"/>
	<line class="st3" x1="765.35" y1="382.68" x2="765.35" y2="0"/>
	<line class="st3" x1="892.91" y1="382.68" x2="892.91" y2="0"/>
	<line class="st3" x1="1020.47" y1="382.68" x2="1020.47" y2="0"/>
	<line class="st3" x1="1148.03" y1="382.68" x2="1148.03" y2="0"/>
</g>
</svg>
